:version 1.10
:name ASF
:units
  mass 1
  length 1
  angle deg
:documentation
  ASF file generated by Kaydara
:root
  axis xyz
  order  tx ty tz rx ry rz
  position 0 0 0
  orientation 0 0 0
:bonedata
  begin
    id 1
    name RightUpLegDummy
    direction -0.718183 -0.695806 0.00816078
    length 4.904
    axis 0 0 0 xyz
  end
  begin
    id 2
    name RightUpLeg
    direction -0.0736652 -0.994202 0.0783343
    length 17.4976
    axis -2.72909 -3.00389 -4.00133 xyz
    dof rx ry rz
  end
  begin
    id 3
    name RightLeg
    direction -0.0389037 -0.994596 -0.0962598
    length 16.5821
    axis 3.95836 -18.5909 -4.46993 xyz
    dof rx ry rz
  end
  begin
    id 4
    name RightFoot
    direction -0.311643 -0.412678 0.855906
    length 3.77069
    axis -1.99483 -18.8351 -3.27644 xyz
    dof rx ry rz
  end
  begin
    id 5
    name RightToes
    direction -0.317852 0.0389852 0.947339
    length 3.85082
    axis -2.00228 -18.1713 -3.25211 xyz
    dof rx ry rz
  end
  begin
    id 6
    name SpineDummy
    direction 8.3039e-015 1 4.44677e-016
    length 4.6813
    axis 0 0 0 xyz
  end
  begin
    id 7
    name Spine
    direction -0.000262373 0.999988 0.00493267
    length 10.1015
    axis -0.00246081 0.00062579 0.0150362 xyz
    dof rx ry rz
  end
  begin
    id 8
    name Spine1
    direction 0 0 0
    length 0
    axis -0.00349562 0.000650293 0.0196666 xyz
    dof rx ry rz
  end
  begin
    id 9
    name HEadDummy
    direction -0.000343232 0.999999 0.00123745
    length 3.43865
    axis -0.00349562 0.000650293 0.0196666 xyz
  end
  begin
    id 10
    name HEad
    direction -0.0461221 0.980933 0.188796
    length 5.12695
    axis -0.00351404 -7.04812 0.0199272 xyz
    dof rx ry rz
  end
  begin
    id 11
    name LeftShoulder1Dummy
    direction 0.998904 -0.0399089 -0.0244534
    length 3.5433
    axis -0.00349562 0.000650293 0.0196666 xyz
  end
  begin
    id 12
    name LeftShoulder1
    direction 0.99951 1.64443e-005 0.0312999
    length 4.05031
    axis -0.00349562 0.000650293 0.0196666 xyz
    dof rx ry rz
  end
  begin
    id 13
    name LeftArm
    direction 0.984791 0.0515299 0.165927
    length 12.9126
    axis -64.823 -10.7743 5.20463 xyz
    dof rx ry rz
  end
  begin
    id 14
    name LeftForeArm
    direction 0.984968 0.0534808 0.16425
    length 10.8596
    axis -30.0462 -7.70601 1.87451 xyz
    dof rx ry rz
  end
  begin
    id 15
    name LeftHand
    direction 0.975871 0.0289682 0.216418
    length 6.62295
    axis -20.1348 -6.98077 1.86072 xyz
    dof rx ry rz
  end
  begin
    id 16
    name RightShoulderDummy
    direction -0.998877 -0.0405946 -0.0244307
    length 3.5433
    axis -0.00349562 0.000650293 0.0196666 xyz
  end
  begin
    id 17
    name RightShoulder
    direction -0.998933 -0.0249743 -0.0388558
    length 4.05031
    axis -0.0205316 -4.02113 1.41395 xyz
    dof rx ry rz
  end
  begin
    id 18
    name RightArm
    direction -0.997559 0.068664 0.0127103
    length 12.9638
    axis -67.3882 1.84188 -6.15987 xyz
    dof rx ry rz
  end
  begin
    id 19
    name RightForeArm
    direction -0.991508 0.0912848 0.0926241
    length 10.8312
    axis -22.1975 3.41087 -4.28711 xyz
    dof rx ry rz
  end
  begin
    id 20
    name RightHand
    direction -0.989262 0.0600788 0.133232
    length 6.57864
    axis -12.2911 2.17515 -4.39675 xyz
    dof rx ry rz
  end
  begin
    id 21
    name LeftUpLegDummy
    direction 0.718183 -0.695806 0.00816078
    length 4.904
    axis 0 0 0 xyz
  end
  begin
    id 22
    name LeftUpLeg
    direction 0.0831398 -0.99469 0.0606531
    length 17.4976
    axis -1.71016 2.29552 4.63832 xyz
    dof rx ry rz
  end
  begin
    id 23
    name LeftLeg
    direction 0.0498442 -0.991778 -0.117862
    length 16.5821
    axis 5.13757 15.5727 5.13348 xyz
    dof rx ry rz
  end
  begin
    id 24
    name LeftFoot
    direction 0.269026 -0.433896 0.85986
    length 3.77069
    axis -0.576502 15.6961 4.10267 xyz
    dof rx ry rz
  end
  begin
    id 25
    name LeftToes
    direction 0.277311 0.0251143 0.960452
    length 3.85048
    axis -0.576502 15.6961 4.10267 xyz
    dof rx ry rz
  end
:hierarchy
  begin
    root RightUpLegDummy SpineDummy LeftUpLegDummy
    RightUpLegDummy RightUpLeg
    RightUpLeg RightLeg
    RightLeg RightFoot
    RightFoot RightToes
    SpineDummy Spine
    Spine Spine1
    Spine1 HEadDummy LeftShoulder1Dummy RightShoulderDummy
    HEadDummy HEad
    LeftShoulder1Dummy LeftShoulder1
    LeftShoulder1 LeftArm
    LeftArm LeftForeArm
    LeftForeArm LeftHand
    RightShoulderDummy RightShoulder
    RightShoulder RightArm
    RightArm RightForeArm
    RightForeArm RightHand
    LeftUpLegDummy LeftUpLeg
    LeftUpLeg LeftLeg
    LeftLeg LeftFoot
    LeftFoot LeftToes
  end

:SAMPLES-PER-SECOND 30
:FULLY-SPECIFIED
:DEGREES
38
root  -6.36693 40.1261 -3.81396 1.64199 -7.4235 -0.564217
RightUpLeg  -2.17985 0.643538 4.43192
RightLeg  1.88928 -12.1734 1.22511
RightFoot  -2.532 0.198913 -2.11562
RightToes  1.74624e-010 -3.18055e-015 -2.98177e-016
Spine  -4.10533 -0.791964 0.368036
Spine1  9.57058 -1.66162 3.76449
HEad  -7.98537 6.09198 1.78426
LeftShoulder1  -3.88251e-019 9.70628e-020 -3.87848e-018
LeftArm  -20.5536 50.4741 -48.7845
LeftForeArm  -7.83575 -10.8648 1.25333
LeftHand  -0.37024 -1.87819 6.41127
RightShoulder  6.00745 9.34683 30.0474
RightArm  -3.85995 -36.7034 7.31502
RightForeArm  -6.44715 14.4569 -10.4149
RightHand  -0.430689 -0.71759 -10.4159
LeftUpLeg  -1.83025 -0.0404398 2.32487
LeftLeg  3.38825 11.7543 3.50876
LeftFoot  0.0774862 0.37661 -3.25858
LeftToes  7.37594e-011 2.64622e-011 -6.25182e-011
39
root  -6.47169 40.0873 -3.8038 1.77456 -7.23203 -0.522967
RightUpLeg  -2.5814 0.697892 4.59373
RightLeg  2.50543 -12.4306 0.853172
RightFoot  -2.94541 0.183409 -2.01252
RightToes  1.74624e-010 -3.18055e-015 -2.98177e-016
Spine  -3.89533 -1.00684 0.733426
Spine1  9.24028 -1.82997 3.63794
HEad  -8.19235 6.47128 1.78284
LeftShoulder1  -3.88251e-019 9.70628e-020 -3.87848e-018
LeftArm  -20.7674 52.2441 -50.2824
LeftForeArm  -7.70236 -13.8244 1.26318
LeftHand  -0.503085 -2.41577 8.0626
RightShoulder  6.11696 9.4264 30.4857
RightArm  -2.82418 -38.4218 7.28634
RightForeArm  -5.5677 17.6282 -10.543
RightHand  -0.511077 -1.15309 -13.4866
LeftUpLeg  -2.31271 -0.0162873 2.45343
LeftLeg  4.04307 11.5206 3.7657
LeftFoot  -0.20095 0.394518 -3.49424
LeftToes  7.37594e-011 2.64622e-011 -6.25182e-011
40
root  -6.56258 40.0378 -3.79163 1.76753 -7.08505 -0.492852
RightUpLeg  -2.89611 0.605301 4.69101
RightLeg  3.28288 -12.4916 0.510193
RightFoot  -3.44313 0.170158 -1.93988
RightToes  1.74624e-010 -3.18055e-015 -2.98177e-016
Spine  -3.63105 -1.2325 1.11165
Spine1  9.08446 -2.03531 3.63291
HEad  -8.63827 6.59932 1.39404
LeftShoulder1  -3.88251e-019 9.70628e-020 -3.87848e-018
LeftArm  -21.2695 54.5036 -52.6136
LeftForeArm  -9.03443 -17.5576 1.46835
LeftHand  -0.596627 -2.4355 9.52025
RightShoulder  6.28824 9.5484 31.1666
RightArm  -0.594196 -40.129 7.34283
RightForeArm  -5.13233 20.52 -11.1394
RightHand  -0.661339 -0.118792 -14.2657
LeftUpLeg  -2.79752 0.0551252 2.60815
LeftLeg  5.051 11.2931 4.12797
LeftFoot  -0.65098 0.412742 -3.80012
LeftToes  7.37594e-011 2.64622e-011 -6.25182e-011
41
root  -6.6327 39.9703 -3.79069 1.66123 -7.12307 -0.524671
RightUpLeg  -3.28749 0.474034 4.81337
RightLeg  4.38547 -12.3304 0.0417363
RightFoot  -4.05027 0.153065 -1.82745
RightToes  1.74624e-010 -3.18055e-015 -2.98177e-016
Spine  -3.33236 -1.37501 1.56338
Spine1  9.10134 -2.18789 3.79589
HEad  -9.27805 6.56736 0.502388
LeftShoulder1  -3.88251e-019 9.70628e-020 -3.87848e-018
LeftArm  -22.1157 57.0833 -56.4381
LeftForeArm  -12.4285 -22.3663 2.74948
LeftHand  -0.553018 -1.68122 9.75712
RightShoulder  6.49892 9.69775 31.989
RightArm  1.85565 -41.3913 7.82904
RightForeArm  -4.95992 22.5073 -11.9581
RightHand  -0.726408 1.236 -12.4882
LeftUpLeg  -3.38234 0.257066 2.8385
LeftLeg  6.56428 10.9668 4.6491
LeftFoot  -1.43493 0.433365 -4.28231
LeftToes  7.37594e-011 2.64622e-011 -6.25182e-011
42
root  -6.67094 39.8563 -3.81439 1.56046 -7.36532 -0.776844
RightUpLeg  -4.0558 0.439564 5.15676
RightLeg  6.16766 -12.0546 -0.794327
RightFoot  -4.87339 0.121093 -1.52784
RightToes  1.74624e-010 -3.18055e-015 -2.98177e-016
Spine  -2.878 -1.40813 2.36643
Spine1  9.11437 -2.24153 4.08324
HEad  -9.993 6.73697 -0.8067
LeftShoulder1  -3.88251e-019 9.70628e-020 -3.87848e-018
LeftArm  -24.1683 60.0047 -61.8651
LeftForeArm  -14.2652 -28.9806 5.39478
LeftHand  -0.412006 -0.743607 8.43868
RightShoulder  6.72571 9.86186 32.8476
RightArm  3.67707 -42.0835 8.86286
RightForeArm  -3.39478 23.7909 -12.6779
RightHand  -0.59093 1.67917 -9.53951
LeftUpLeg  -4.41134 0.988378 3.29229
LeftLeg  9.022 10.1553 5.46152
LeftFoot  -2.75369 0.433528 -4.87182
LeftToes  7.37594e-011 2.64622e-011 -6.25182e-011
